<svg width="52" height="52" viewBox="0 0 52 52" fill="none" xmlns="http://www.w3.org/2000/svg">
<path d="M35.1002 33.8C34.7554 33.8 34.4248 33.937 34.181 34.1808C33.9372 34.4246 33.8002 34.7552 33.8002 35.1C33.8002 35.4448 33.9372 35.7755 34.181 36.0193C34.4248 36.2631 34.7554 36.4 35.1002 36.4H40.3002C40.645 36.4 40.9756 36.2631 41.2194 36.0193C41.4632 35.7755 41.6002 35.4448 41.6002 35.1C41.6002 34.7552 41.4632 34.4246 41.2194 34.1808C40.9756 33.937 40.645 33.8 40.3002 33.8H35.1002ZM5.2002 17.55C5.2002 15.6537 5.9535 13.8351 7.29438 12.4942C8.63527 11.1533 10.4539 10.4 12.3502 10.4H39.6502C41.5465 10.4 43.3651 11.1533 44.706 12.4942C46.0469 13.8351 46.8002 15.6537 46.8002 17.55V34.45C46.8002 36.3463 46.0469 38.165 44.706 39.5058C43.3651 40.8467 41.5465 41.6 39.6502 41.6H12.3502C10.4539 41.6 8.63527 40.8467 7.29438 39.5058C5.9535 38.165 5.2002 36.3463 5.2002 34.45V17.55ZM12.3502 13C11.1435 13 9.98615 13.4794 9.13286 14.3327C8.27957 15.186 7.8002 16.3433 7.8002 17.55V20.8H44.2002V17.55C44.2002 16.3433 43.7208 15.186 42.8675 14.3327C42.0142 13.4794 40.8569 13 39.6502 13H12.3502ZM44.2002 23.4H7.8002V34.45C7.8002 36.9616 9.8386 39 12.3502 39H39.6502C40.8569 39 42.0142 38.5207 42.8675 37.6674C43.7208 36.8141 44.2002 35.6568 44.2002 34.45V23.4Z" fill="black"/>
</svg>
